<svg width="159" height="114" viewBox="0 0 159 114" fill="none" xmlns="http://www.w3.org/2000/svg">
<path d="M2.97803 69.0577L3.49631 68.0666C12.9469 49.9934 34.2693 41.6463 53.478 48.5V48.5" stroke="#F9F7F4" stroke-width="4.5" stroke-linecap="round"/>
<circle cx="41.3275" cy="19.6942" r="17.4442" fill="#F9F7F4" stroke="#F9F7F4" stroke-width="4.5"/>
<path d="M156.022 69.0577L155.385 67.8389C146.044 49.9756 124.842 41.8911 105.979 49V49" stroke="#F9F7F4" stroke-width="4.5" stroke-linecap="round"/>
<circle cx="19.6942" cy="19.6942" r="17.4442" transform="matrix(-1 0 0 1 137.367 0)" fill="#F9F7F4" stroke="#F9F7F4" stroke-width="4.5"/>
<path d="M34.978 111.547V111.547C54.1413 76.0712 105.517 75.7965 124.163 111.547V111.547" stroke="#F9F7F4" stroke-width="4.5" stroke-linecap="round"/>
<circle cx="79.4042" cy="54.3619" r="20.5648" fill="#F9F7F4" stroke="#F9F7F4" stroke-width="4.5"/>
<path d="M35.1575 46.126C16.1575 47.5196 3.97803 71 3.97803 71L60.978 71C60.978 71 57.5077 67.6991 55.6191 61.6724C53.3714 54.5 55.6191 49 55.6191 49C55.6191 49 49.2857 45.0897 35.1575 46.126Z" fill="#F9F7F4"/>
<path d="M124.252 46.126C143.585 47.5196 155.978 71 155.978 71L97.978 71C97.978 71 101.314 67.6334 103.431 61.6724C105.8 55 103.978 49.5 103.978 49.5C103.978 49.5 109.875 45.0897 124.252 46.126Z" fill="#F9F7F4"/>
<path d="M78.978 86.9973C45.478 86.9973 35.978 113.497 35.978 113.497H123.478C118.478 104.5 110.478 86.9973 78.978 86.9973Z" fill="#F9F7F4"/>
</svg>
