<svg width="16" height="20" viewBox="0 0 16 20" fill="none" xmlns="http://www.w3.org/2000/svg">
<g id="Group">
<path id="Vector" d="M1.58329 0.333496H14.4166C14.6597 0.333496 14.8929 0.430073 15.0648 0.601981C15.2367 0.77389 15.3333 1.00705 15.3333 1.25016V18.7979C15.3334 18.8799 15.3115 18.9604 15.2699 19.031C15.2284 19.1016 15.1686 19.1598 15.0969 19.1995C15.0252 19.2392 14.9442 19.2589 14.8623 19.2566C14.7803 19.2544 14.7005 19.2302 14.6311 19.1866L7.99996 15.0277L1.36879 19.1857C1.29946 19.2292 1.21973 19.2534 1.13789 19.2557C1.05604 19.258 0.975072 19.2384 0.903396 19.1988C0.831721 19.1592 0.771957 19.1012 0.730319 19.0307C0.68868 18.9602 0.666687 18.8798 0.666626 18.7979V1.25016C0.666626 1.00705 0.763203 0.77389 0.935112 0.601981C1.10702 0.430073 1.34018 0.333496 1.58329 0.333496Z" fill="#749E2E"/>
</g>
</svg>
