<svg width="22" height="23" viewBox="0 0 22 23" fill="none" xmlns="http://www.w3.org/2000/svg">
<path d="M4.58329 2.3335H17.4166C17.6597 2.3335 17.8929 2.43007 18.0648 2.60198C18.2367 2.77389 18.3333 3.00705 18.3333 3.25016V20.7979C18.3334 20.8799 18.3115 20.9604 18.2699 21.031C18.2284 21.1016 18.1686 21.1598 18.0969 21.1995C18.0252 21.2392 17.9442 21.2589 17.8623 21.2566C17.7803 21.2544 17.7005 21.2302 17.6311 21.1866L11 17.0277L4.36879 21.1857C4.29946 21.2292 4.21973 21.2534 4.13789 21.2557C4.05604 21.258 3.97507 21.2384 3.9034 21.1988C3.83172 21.1592 3.77196 21.1012 3.73032 21.0307C3.68868 20.9602 3.66669 20.8798 3.66663 20.7979V3.25016C3.66663 3.00705 3.7632 2.77389 3.93511 2.60198C4.10702 2.43007 4.34018 2.3335 4.58329 2.3335Z" fill="#F9F7F4"/>
</svg>
