<svg width="98" height="125" viewBox="0 0 98 125" fill="none" xmlns="http://www.w3.org/2000/svg">
<path d="M6.61373 0H91.3857C92.9916 0 94.5317 0.63795 95.6673 1.77351C96.8028 2.90907 97.4408 4.44921 97.4408 6.05514V121.969C97.4415 122.51 97.297 123.042 97.0224 123.508C96.7478 123.975 96.3531 124.359 95.8794 124.621C95.4058 124.883 94.8705 125.014 94.3294 124.999C93.7882 124.984 93.261 124.824 92.8026 124.536L48.9997 95.6844L5.19683 124.53C4.73887 124.818 4.21219 124.977 3.67155 124.993C3.13092 125.008 2.59606 124.878 2.12261 124.617C1.64915 124.355 1.25437 123.972 0.979322 123.506C0.704273 123.04 0.558996 122.509 0.558594 121.969V6.05514C0.558594 4.44921 1.19655 2.90907 2.3321 1.77351C3.46766 0.63795 5.00781 0 6.61373 0ZM91.3857 6.05514H6.61373V116.445L48.9997 88.4981L91.3857 116.445V6.05514Z" fill="white"/>
</svg>
