<svg width="97" height="125" viewBox="0 0 97 125" fill="none" xmlns="http://www.w3.org/2000/svg">
<path d="M6.21887 0.309326H90.781C92.383 0.309326 93.9193 0.945698 95.0521 2.07845C96.1848 3.21119 96.8212 4.74753 96.8212 6.34948V121.976C96.8219 122.516 96.6777 123.047 96.4038 123.512C96.1299 123.977 95.7362 124.361 95.2637 124.622C94.7912 124.884 94.2573 125.014 93.7175 124.999C93.1776 124.984 92.6517 124.824 92.1944 124.537L48.5 95.757L4.80547 124.531C4.34864 124.818 3.82326 124.978 3.28397 124.993C2.74467 125.008 2.21114 124.878 1.73885 124.618C1.26657 124.357 0.872766 123.974 0.598398 123.51C0.32403 123.045 0.179112 122.516 0.178711 121.976V6.34948C0.178711 4.74753 0.815084 3.21119 1.94783 2.07845C3.08058 0.945698 4.61692 0.309326 6.21887 0.309326ZM90.781 6.34948H6.21887V116.466L48.5 88.5884L90.781 116.466V6.34948Z" fill="#F9F7F4"/>
<path d="M6.40189 0H90.5973C92.1922 0 93.7219 0.637904 94.8498 1.77338C95.9776 2.90886 96.6112 4.4489 96.6112 6.0547V121.96C96.6119 122.501 96.4684 123.033 96.1956 123.499C95.9229 123.966 95.5309 124.35 95.0605 124.612C94.59 124.875 94.0584 125.005 93.5209 124.99C92.9834 124.975 92.4598 124.815 92.0045 124.527L48.4996 97.0569L4.99463 124.521C4.53978 124.809 4.01668 124.969 3.47972 124.984C2.94277 124.999 2.41155 124.869 1.94131 124.608C1.47108 124.346 1.07898 123.963 0.805806 123.497C0.532628 123.032 0.388339 122.501 0.387939 121.96V6.0547C0.387939 4.4489 1.02155 2.90886 2.14939 1.77338C3.27722 0.637904 4.80689 0 6.40189 0Z" fill="#F9F7F4"/>
</svg>
