<svg width="130" height="131" viewBox="0 0 130 131" fill="none" xmlns="http://www.w3.org/2000/svg">
<path d="M35.1167 20.7169L18.1304 3.73062C18.1304 3.73062 38.8326 -0.569095 47.8564 11.6929C53.3127 19.1072 51.0413 35.049 51.0413 35.049L123.233 108.302C123.233 108.302 132.257 116.265 123.233 125.289C116.333 132.188 107.308 123.165 107.308 123.165L35.1167 51.5045C35.1167 51.5045 19.1923 55.0546 9.6373 46.1963C0.0823452 37.338 3.26745 18.5936 3.26745 18.5936L18.1304 35.049C18.1304 35.049 28.3985 43.0114 35.1167 35.049C40.4912 28.6792 35.1167 20.7169 35.1167 20.7169Z" stroke="#F9F7F4" stroke-width="4.5"/>
<path d="M100.408 40.3574L86.0759 54.6895L75.4595 44.0731L90.8533 29.2101L92.9766 17.0012L116.333 3.73071L126.949 14.3471L114.209 37.1724L100.408 40.3574Z" stroke="#F9F7F4" stroke-width="4.5"/>
<path d="M57.4116 88.662L42.0178 73.2682L5.92196 108.833C5.92196 108.833 -1.13118 116.796 5.92196 124.227C12.9751 131.658 20.2541 125.82 20.2541 125.82L57.4116 88.662Z" stroke="#F9F7F4" stroke-width="4.5"/>
</svg>
