<svg width="129" height="129" viewBox="0 0 129 129" fill="none" xmlns="http://www.w3.org/2000/svg">
<path d="M34.6159 19.7169L17.6296 2.73062C17.6296 2.73062 38.3318 -1.5691 47.3556 10.6929C52.8119 18.1072 50.5405 34.049 50.5405 34.049L122.732 107.302C122.732 107.302 131.757 115.265 122.732 124.289C115.832 131.188 106.808 122.165 106.808 122.165L34.6159 50.5045C34.6159 50.5045 18.6915 54.0546 9.13651 45.1963C-0.418448 36.338 2.76666 17.5936 2.76666 17.5936L17.6296 34.049C17.6296 34.049 27.8977 42.0114 34.6159 34.049C39.9904 27.6792 34.6159 19.7169 34.6159 19.7169Z" fill="#F9F7F4" stroke="#F9F7F4" stroke-width="4"/>
<path d="M99.907 39.3574L85.5749 53.6895L74.9585 43.0731L90.3523 28.2101L92.4755 16.0012L115.832 2.73071L126.448 13.3471L113.708 36.1724L99.907 39.3574Z" fill="#F9F7F4"/>
<path d="M56.9106 87.662L41.5168 72.2682L5.42092 107.833C5.42092 107.833 -1.63222 115.796 5.42092 123.227C12.474 130.658 19.7531 124.82 19.7531 124.82L56.9106 87.662Z" fill="#F9F7F4"/>
<path d="M99.907 39.3574L85.5749 53.6895L74.9585 43.0731L90.3523 28.2101L92.4755 16.0012L115.832 2.73071L126.448 13.3471L113.708 36.1724L99.907 39.3574Z" stroke="#F9F7F4" stroke-width="4"/>
<path d="M56.9106 87.662L41.5168 72.2682L5.42092 107.833C5.42092 107.833 -1.63222 115.796 5.42092 123.227C12.474 130.658 19.7531 124.82 19.7531 124.82L56.9106 87.662Z" stroke="#F9F7F4" stroke-width="4"/>
</svg>
