<svg width="68" height="67" viewBox="0 0 68 67" fill="none" xmlns="http://www.w3.org/2000/svg">
<rect width="68" height="66.6614" rx="2.24757" fill="#F9F4F4"/>
<path d="M49.9697 33.2273C49.9697 41.9049 42.9351 48.9394 34.2576 48.9394C25.58 48.9394 18.5455 41.9049 18.5455 33.2273C18.5455 24.5497 25.58 17.5152 34.2576 17.5152C42.9351 17.5152 49.9697 24.5497 49.9697 33.2273Z" stroke="#901A36" stroke-width="3.09091"/>
<path d="M46.4606 21.0244C43.224 17.7879 38.8345 15.9697 34.2576 15.9697C29.6806 15.9697 25.2911 17.7879 22.0546 21.0244C18.8182 24.2608 17 28.6503 17 33.2273C17 37.8042 18.8182 42.1938 22.0546 45.4303L34.2576 33.2273L46.4606 21.0244Z" fill="#9F1E3A"/>
</svg>
