<svg width="128" height="131" viewBox="0 0 128 131" fill="none" xmlns="http://www.w3.org/2000/svg">
<path d="M80.9522 128H18.5904C9.98008 128 3 121.005 3 112.375V18.625C3 9.99555 9.98008 3 18.5904 3H80.9522" stroke="#F9F7F4" stroke-width="4.5" stroke-linecap="round" stroke-linejoin="round"/>
<path d="M30.75 65V69C30.75 70.7949 32.2051 72.25 34 72.25H109.661L94.0792 88.2218C92.8367 89.4953 92.8493 91.5313 94.1074 92.7894L95.2019 93.8839C96.4711 95.1531 98.5289 95.1531 99.7981 93.8839L124.384 69.2981C125.653 68.0289 125.653 65.9711 124.384 64.7019L99.7981 40.1161C98.5289 38.8469 96.4711 38.8469 95.2019 40.1161L94.1074 41.2106L95.6984 42.8016L94.1074 41.2106C92.8493 42.4687 92.8367 44.5047 94.0792 45.7782L109.661 61.75H34C32.2051 61.75 30.75 63.2051 30.75 65Z" fill="#F9F7F4" stroke="#F9F7F4" stroke-width="4.5" stroke-linecap="round"/>
</svg>
