<svg width="20" height="20" viewBox="0 0 20 20" fill="none" xmlns="http://www.w3.org/2000/svg">
<g id="fat-close-btn-icon">
<path d="M1.04976 5.14729C0.469945 4.55559 0.524897 3.65711 1.1725 3.14048L3.93645 0.935497C4.58405 0.418867 5.57906 0.479725 6.15887 1.07143L19.4179 14.6023C19.9977 15.194 19.9427 16.0925 19.2951 16.6091L16.5312 18.8141C15.8836 19.3307 14.8886 19.2699 14.3088 18.6782L1.04976 5.14729Z" fill="white"/>
<path d="M1.04976 5.14729C0.469945 4.55559 0.524897 3.65711 1.1725 3.14048L3.93645 0.935497C4.58405 0.418867 5.57906 0.479725 6.15887 1.07143L19.4179 14.6023C19.9977 15.194 19.9427 16.0925 19.2951 16.6091L16.5312 18.8141C15.8836 19.3307 14.8886 19.2699 14.3088 18.6782L1.04976 5.14729Z" fill="white"/>
<path d="M1.04976 14.6022C0.469945 15.1939 0.524897 16.0924 1.1725 16.609L3.93645 18.814C4.58405 19.3306 5.57906 19.2698 6.15887 18.6781L19.4179 5.14719C19.9977 4.55549 19.9427 3.65701 19.2951 3.14038L16.5312 0.935404C15.8836 0.418774 14.8886 0.479632 14.3088 1.07133L1.04976 14.6022Z" fill="white"/>
</g>
</svg>
