<svg width="155" height="130" viewBox="0 0 155 130" fill="none" xmlns="http://www.w3.org/2000/svg">
<path d="M75.9853 4.09387L7.75 58.5476L4.23774 61.7102C3.02818 62.7993 2.57044 64.4969 3.06851 66.0465L4.83717 71.549C5.74381 74.3696 9.23637 75.3483 11.4767 73.4096L31.5854 56.0078C32.3366 55.3578 33.2967 55 34.2901 55H122.079C123.151 55 124.181 55.4165 124.952 56.1615L142.76 73.3773C144.828 75.3768 148.256 74.7044 149.415 72.0716L151.634 67.0348C152.309 65.5012 151.992 63.7115 150.83 62.5038L147.025 58.5476L81.1965 4.13862C79.6889 2.89248 77.5141 2.87381 75.9853 4.09387Z" fill="#F9F7F4" stroke="#F9F7F4" stroke-width="5.51089" stroke-linecap="round"/>
<path d="M33.2748 122.472L33.2748 42.2202C33.2748 40.9717 33.8392 39.7901 34.8103 39.0054L76.1002 5.64061C77.6388 4.39738 79.8425 4.41852 81.3569 5.69104L121.006 39.0072C121.941 39.7926 122.48 40.9509 122.48 42.1716L122.48 122.463C122.48 124.746 120.63 126.596 118.348 126.597L37.4085 126.605C35.1256 126.606 33.2748 124.755 33.2748 122.472Z" fill="#F9F7F4" stroke="#F9F7F4" stroke-width="5.51089" stroke-linecap="round"/>
</svg>
