<svg width="15" height="22" viewBox="0 0 15 22" fill="none" xmlns="http://www.w3.org/2000/svg">
<path opacity="0.2" fill-rule="evenodd" clip-rule="evenodd" d="M1.67952 7.13892C1.67952 2.8812 4.33956 0.80957 7.25 0.80957C10.1604 0.80957 12.8205 2.8812 12.8205 7.13892V9.60613C13.9471 9.73103 14.5 10.4389 14.5 11.7714V19.7248C14.5 21.2238 13.8115 21.9005 12.4241 21.9005H2.07591C0.688499 21.9005 0 21.2238 0 19.7248V11.7819C0 10.4494 0.552882 9.77269 1.67952 9.63735V7.13892ZM7.25 2.41274C5.09064 2.41274 3.359 4.00552 3.359 6.90991V9.60613L11.141 9.59573V6.90991C11.141 4.00552 9.40932 2.41274 7.25 2.41274ZM9.04925 14.5406C9.04925 15.1848 8.72304 15.7528 8.22678 16.0885L9.75004 18.8246H4.61293L6.13638 16.0882C5.6404 15.7525 5.3144 15.1846 5.3144 14.5406C5.3144 13.5092 6.15048 12.6732 7.18183 12.6732C8.21318 12.6732 9.04925 13.5092 9.04925 14.5406Z" fill="#141414"/>
</svg>
