<svg width="188" height="57" viewBox="0 0 188 57" fill="none" xmlns="http://www.w3.org/2000/svg">
<g clip-path="url(#clip0_193_11251)">
<path d="M70.663 19.8706C70.663 19.1945 70.7827 18.5317 71.0222 17.8557C71.2617 17.1929 71.6209 16.5831 72.0866 16.0529C72.5523 15.5227 73.1244 15.0985 73.8029 14.7671C74.4815 14.4357 75.2399 14.2766 76.0914 14.2766C77.1159 14.2766 77.994 14.502 78.7125 14.9527C79.4443 15.4034 79.9898 15.9999 80.3623 16.7157L78.9653 17.6436C78.8056 17.3122 78.6194 17.0206 78.3932 16.7952C78.167 16.5699 77.9275 16.3843 77.6614 16.2385C77.3953 16.1059 77.1292 15.9999 76.8365 15.9468C76.5571 15.8938 76.2777 15.8541 76.0116 15.8541C75.4262 15.8541 74.9073 15.9734 74.4549 16.212C74.0158 16.4506 73.6433 16.7554 73.3373 17.1531C73.0313 17.5375 72.8051 17.975 72.6587 18.4654C72.4991 18.9427 72.4325 19.4331 72.4325 19.9103C72.4325 20.4538 72.5257 20.9841 72.6986 21.4745C72.8716 21.965 73.1244 22.4024 73.4437 22.7868C73.763 23.1713 74.1489 23.4629 74.5879 23.6882C75.027 23.9136 75.5193 24.0329 76.0382 24.0329C76.3176 24.0329 76.597 23.9931 76.8897 23.9268C77.1824 23.8606 77.4618 23.7545 77.7279 23.5954C77.994 23.4496 78.2468 23.2508 78.473 23.0254C78.6992 22.8001 78.8855 22.5217 79.0318 22.1903L80.5087 23.0254C80.3357 23.4496 80.0696 23.8208 79.7503 24.1389C79.4177 24.4571 79.0584 24.7354 78.646 24.9475C78.2335 25.1729 77.7945 25.332 77.3421 25.4513C76.8897 25.5706 76.4373 25.6236 75.985 25.6236C75.2 25.6236 74.4682 25.4513 73.8162 25.1199C73.1643 24.7885 72.5922 24.351 72.1265 23.8075C71.6475 23.2641 71.2883 22.6543 71.0222 21.965C70.7561 21.2757 70.623 20.5731 70.623 19.8573L70.663 19.8706Z" fill="#9F1E3A"/>
<path d="M90.6743 23.9798V25.5439H82.9707V14.3428H90.5413V15.907H84.7536V19.0884H89.7696V20.5598H84.7536V23.9798H90.6876H90.6743Z" fill="#9F1E3A"/>
<path d="M95.0381 17.6567V25.5439H93.2686V14.3428H94.6656L101.092 22.4156V14.356H102.875V25.5307H101.398L95.0381 17.6435V17.6567Z" fill="#9F1E3A"/>
<path d="M114.41 15.907H110.672V25.5439H108.889V15.907H105.137V14.3428H114.41V15.907Z" fill="#9F1E3A"/>
<path d="M124.389 23.9798V25.5439H116.686V14.3428H124.256V15.907H118.468V19.0884H123.484V20.5598H118.468V23.9798H124.402H124.389Z" fill="#9F1E3A"/>
<path d="M126.983 25.5439V14.3428H131.88C132.385 14.3428 132.851 14.4488 133.277 14.6609C133.702 14.873 134.075 15.1514 134.381 15.4828C134.687 15.8274 134.926 16.2118 135.099 16.6493C135.272 17.0867 135.366 17.5242 135.366 17.9881C135.366 18.3725 135.312 18.7304 135.206 19.0751C135.099 19.4198 134.953 19.7379 134.767 20.0428C134.581 20.3344 134.341 20.5863 134.075 20.8116C133.796 21.0237 133.503 21.1828 133.17 21.2888L135.818 25.5439H133.809L131.374 21.6467H128.78V25.5439H127.01H126.983ZM128.753 20.0958H131.853C132.106 20.0958 132.332 20.0428 132.545 19.9367C132.744 19.8307 132.931 19.6716 133.077 19.486C133.223 19.2872 133.343 19.0618 133.423 18.81C133.503 18.5581 133.556 18.293 133.556 18.0014C133.556 17.7098 133.503 17.4446 133.41 17.1928C133.317 16.9409 133.184 16.7156 133.011 16.53C132.851 16.3444 132.651 16.1853 132.438 16.0793C132.226 15.9732 131.999 15.9202 131.76 15.9202H128.753V20.0958Z" fill="#9F1E3A"/>
<path d="M142.869 25.5439V14.3428H150.36V15.907H144.639V19.2474H149.415V20.7188H144.639V25.5439H142.869Z" fill="#9F1E3A"/>
<path d="M157.212 25.6236C156.413 25.6236 155.682 25.4645 155.016 25.1464C154.351 24.8282 153.792 24.4041 153.313 23.8738C152.834 23.3436 152.475 22.7338 152.209 22.0578C151.956 21.3685 151.823 20.6792 151.823 19.9634C151.823 19.2475 151.956 18.5052 152.236 17.8159C152.515 17.1266 152.888 16.5301 153.367 15.9999C153.846 15.4696 154.418 15.0587 155.07 14.7406C155.735 14.4357 156.453 14.2766 157.225 14.2766C157.997 14.2766 158.755 14.4357 159.42 14.7671C160.086 15.0985 160.644 15.5359 161.11 16.0661C161.576 16.5964 161.948 17.2061 162.201 17.8822C162.454 18.5582 162.587 19.2475 162.587 19.9501C162.587 20.6924 162.454 21.4082 162.188 22.0975C161.922 22.7868 161.536 23.3834 161.057 23.9003C160.578 24.4173 159.993 24.8415 159.341 25.1464C158.675 25.4513 157.97 25.6103 157.198 25.6103L157.212 25.6236ZM153.633 19.9501C153.633 20.4803 153.713 20.9841 153.886 21.4745C154.058 21.965 154.298 22.4024 154.604 22.7868C154.91 23.1713 155.296 23.4629 155.735 23.6882C156.174 23.9136 156.68 24.0329 157.225 24.0329C157.771 24.0329 158.303 23.9136 158.742 23.675C159.181 23.4364 159.553 23.1315 159.859 22.7338C160.165 22.3494 160.392 21.912 160.551 21.4215C160.711 20.9443 160.791 20.4406 160.791 19.9368C160.791 19.4066 160.711 18.8896 160.538 18.3992C160.365 17.9087 160.126 17.4845 159.82 17.1001C159.514 16.7289 159.128 16.4241 158.702 16.1987C158.263 15.9734 157.771 15.8541 157.238 15.8541C156.666 15.8541 156.161 15.9734 155.722 16.212C155.283 16.4506 154.91 16.7554 154.604 17.1399C154.298 17.5243 154.058 17.9485 153.899 18.4389C153.739 18.9294 153.659 19.4199 153.659 19.9236L153.633 19.9501Z" fill="#9F1E3A"/>
<path d="M165.209 25.5439V14.3428H170.105C170.611 14.3428 171.076 14.4488 171.502 14.6609C171.928 14.873 172.301 15.1514 172.607 15.4828C172.913 15.8274 173.152 16.2118 173.325 16.6493C173.498 17.0867 173.591 17.5242 173.591 17.9881C173.591 18.3725 173.538 18.7304 173.432 19.0751C173.325 19.4198 173.179 19.7379 172.992 20.0428C172.806 20.3344 172.567 20.5863 172.301 20.8116C172.021 21.0237 171.728 21.1828 171.396 21.2888L174.044 25.5439H172.034L169.6 21.6467H167.005V25.5439H165.236H165.209ZM166.979 20.0958H170.079C170.331 20.0958 170.558 20.0428 170.77 19.9367C170.97 19.8307 171.156 19.6716 171.303 19.486C171.449 19.2872 171.569 19.0618 171.649 18.81C171.728 18.5581 171.782 18.293 171.782 18.0014C171.782 17.7098 171.728 17.4446 171.635 17.1928C171.542 16.9409 171.409 16.7156 171.236 16.53C171.076 16.3444 170.877 16.1853 170.664 16.0793C170.451 15.9732 170.225 15.9202 169.985 15.9202H166.979V20.0958Z" fill="#9F1E3A"/>
<path d="M80.6012 31.5488V42.75H78.8184V37.8188H73.1504V42.75H71.3809V31.5488H73.1504V36.2281H78.8184V31.5488H80.6012Z" fill="#9F1E3A"/>
<path d="M82.7304 40.7748C82.9167 40.9074 83.1828 41.0267 83.5287 41.146C83.888 41.2653 84.2871 41.3315 84.7395 41.3315C85.2185 41.3315 85.6176 41.2388 85.897 41.0664C86.1898 40.8941 86.4026 40.629 86.5623 40.2976C86.722 39.9662 86.8151 39.5288 86.8683 39.025C86.9215 38.5213 86.9348 37.9248 86.9348 37.2488V31.562H88.7177V37.2488C88.7177 38.0971 88.6778 38.8792 88.5847 39.5685C88.5048 40.2711 88.3186 40.8676 88.0525 41.3581C87.7864 41.8485 87.3739 42.2329 86.855 42.5113C86.3228 42.7897 85.6176 42.9222 84.7395 42.9222C83.7948 42.9222 82.9832 42.6969 82.3047 42.2329L82.7304 40.7881V40.7748Z" fill="#9F1E3A"/>
<path d="M99.5483 41.1858V42.75H91.8447V31.5488H99.4153V33.113H93.6276V36.2944H98.6436V37.7658H93.6276V41.1858H99.5616H99.5483Z" fill="#9F1E3A"/>
<path d="M102.302 42.7502V31.5491H107.198C107.704 31.5491 108.169 31.6551 108.595 31.8672C109.021 32.0793 109.393 32.3577 109.699 32.6891C110.005 33.0337 110.245 33.4181 110.418 33.8556C110.591 34.293 110.684 34.7305 110.684 35.1944C110.684 35.5788 110.631 35.9367 110.524 36.2814C110.418 36.6261 110.271 36.9442 110.085 37.2491C109.899 37.5407 109.659 37.7926 109.393 38.0179C109.114 38.23 108.821 38.3891 108.489 38.4951L111.136 42.7502H109.127L106.692 38.853H104.098V42.7502H102.328H102.302ZM104.085 37.2888H107.185C107.437 37.2888 107.664 37.2358 107.877 37.1298C108.076 37.0237 108.262 36.8647 108.409 36.6791C108.555 36.4802 108.675 36.2549 108.755 36.003C108.835 35.7512 108.888 35.486 108.888 35.1944C108.888 34.9028 108.835 34.6377 108.741 34.3858C108.648 34.134 108.515 33.9086 108.342 33.723C108.183 33.5374 107.983 33.3784 107.77 33.2723C107.557 33.1663 107.331 33.1133 107.092 33.1133H104.085V37.2888Z" fill="#9F1E3A"/>
<path d="M115.301 34.8628V42.75H113.531V31.5488H114.928L121.355 39.6216V31.5621H123.137V42.7367H121.661L115.301 34.8495V34.8628Z" fill="#9F1E3A"/>
<path d="M134.141 41.1858V42.75H126.438V31.5488H134.008V33.113H128.22V36.2944H133.236V37.7658H128.22V41.1858H134.154H134.141Z" fill="#9F1E3A"/>
<path d="M143.149 34.1869C143.042 34.0676 142.896 33.9482 142.697 33.8157C142.497 33.6831 142.257 33.5638 141.991 33.4445C141.725 33.3252 141.433 33.2324 141.1 33.1662C140.781 33.0866 140.448 33.0601 140.115 33.0601C139.37 33.0601 138.811 33.1927 138.466 33.471C138.106 33.7494 137.933 34.1206 137.933 34.611C137.933 34.8894 137.987 35.1015 138.093 35.2871C138.199 35.4727 138.372 35.6185 138.612 35.7378C138.851 35.8571 139.131 35.9896 139.477 36.0824C139.823 36.1885 140.235 36.2945 140.701 36.4006C141.273 36.5331 141.779 36.6922 142.244 36.8513C142.697 37.0236 143.096 37.2224 143.402 37.461C143.721 37.6996 143.961 38.0045 144.134 38.3492C144.306 38.6938 144.4 39.1313 144.4 39.635C144.4 40.205 144.293 40.6955 144.08 41.1064C143.867 41.5173 143.575 41.8487 143.189 42.1138C142.816 42.3657 142.377 42.5645 141.885 42.6838C141.393 42.8031 140.86 42.8694 140.288 42.8694C139.437 42.8694 138.612 42.7369 137.814 42.485C137.015 42.2331 136.297 41.8487 135.658 41.3582L136.47 39.8471C136.603 39.9796 136.802 40.1387 137.069 40.2978C137.321 40.4701 137.627 40.6159 137.973 40.7617C138.319 40.9076 138.692 41.0269 139.091 41.1196C139.49 41.2257 139.903 41.2655 140.342 41.2655C141.033 41.2655 141.579 41.1462 141.951 40.9076C142.337 40.6689 142.524 40.311 142.524 39.8338C142.524 39.5555 142.457 39.3169 142.311 39.118C142.164 38.9324 141.965 38.7601 141.699 38.6275C141.433 38.4817 141.113 38.3624 140.727 38.2431C140.342 38.1238 139.916 38.0045 139.424 37.8852C138.865 37.7394 138.372 37.5803 137.96 37.4213C137.548 37.2622 137.202 37.0634 136.922 36.8248C136.643 36.5994 136.443 36.321 136.297 36.0162C136.15 35.7113 136.084 35.3269 136.084 34.8894C136.084 34.3459 136.19 33.8555 136.403 33.4313C136.616 33.0071 136.896 32.6492 137.268 32.3575C137.627 32.0659 138.066 31.8538 138.559 31.708C139.051 31.5622 139.596 31.4827 140.169 31.4827C140.927 31.4827 141.632 31.602 142.271 31.8406C142.909 32.0792 143.482 32.3841 143.961 32.742L143.149 34.1869Z" fill="#9F1E3A"/>
<path d="M146.927 42.7499V31.5753H148.697V37.3283L153.979 31.562H155.948L151.518 36.5197L156.201 42.7632H154.219L150.413 37.6067L148.684 39.3829V42.7632H146.914L146.927 42.7499Z" fill="#9F1E3A"/>
<path d="M161.097 31.5488H162.654L167.084 42.75H165.221L164.037 39.7012H159.7L158.529 42.75H156.64L161.11 31.5488H161.097ZM163.678 38.4021L161.869 33.5902L160.006 38.4021H163.678Z" fill="#9F1E3A"/>
<path d="M168.588 42.75V31.5488H172.579C173.484 31.5488 174.282 31.6946 174.961 31.9863C175.639 32.2779 176.211 32.6756 176.664 33.1793C177.116 33.683 177.462 34.2795 177.701 34.9556C177.928 35.6316 178.047 36.3607 178.047 37.1295C178.047 37.9779 177.914 38.7467 177.662 39.436C177.409 40.1253 177.036 40.7086 176.557 41.1991C176.078 41.6895 175.506 42.0607 174.828 42.3391C174.149 42.6042 173.404 42.7367 172.566 42.7367H168.574L168.588 42.75ZM176.238 37.1428C176.238 36.5595 176.158 36.016 175.998 35.5123C175.839 35.0219 175.599 34.5977 175.28 34.2398C174.961 33.8819 174.575 33.6167 174.122 33.4179C173.67 33.2191 173.151 33.113 172.566 33.113H170.344V41.1858H172.566C173.151 41.1858 173.683 41.0798 174.136 40.8809C174.588 40.6821 174.974 40.3905 175.293 40.0326C175.613 39.6746 175.839 39.2372 175.998 38.7467C176.158 38.2563 176.238 37.7128 176.238 37.1428Z" fill="#9F1E3A"/>
<path d="M188 41.1858V42.75H180.296V31.5488H187.866V33.113H182.079V36.2944H187.095V37.7658H182.079V41.1858H188.013H188Z" fill="#9F1E3A"/>
<path d="M0 0V57H26.7032V53.1956H3.81854V18.9956H7.62378V38.0044H11.4423V7.59558H7.62378V15.2044H3.81854V3.80442H38.518V7.59558H15.2609V11.4H45.7693V18.9956H49.5878V7.59558H42.3366V3.80442H53.3931V53.1956H30.5084V57H57.2116V0H0Z" fill="#9F1E3A"/>
<path d="M34.3271 26.6045V22.8H22.8848V34.2H34.3271V30.3956H26.7033V26.6045H34.3271Z" fill="#9F1E3A"/>
<path d="M15.2607 15.2043V26.6043H19.066V18.9955H26.7031V15.2043H15.2607Z" fill="#9F1E3A"/>
<path d="M7.62329 41.7956V49.3912H38.1317V45.5867H26.6894V41.7823H41.9503V30.3823H45.7688V45.5867H41.9503V49.3912H49.574V22.7867H45.7555V26.5912H41.937V15.1912H30.4946V18.9956H38.1184V37.9912H19.0523V30.3956H15.2338V41.7956H22.8575V45.6H11.4152V41.7956H7.59668H7.62329Z" fill="#9F1E3A"/>
</g>
<defs>
<clipPath id="clip0_193_11251">
<rect width="188" height="57" fill="white"/>
</clipPath>
</defs>
</svg>
