<svg width="272" height="270" viewBox="0 0 272 270" fill="none" xmlns="http://www.w3.org/2000/svg">
<path d="M0.298828 0V270H126.788V251.979H18.3867V89.9791H36.4115V180.021H54.4993V35.9791H36.4115V72.0209H18.3867V18.0209H182.753V35.9791H72.5871V54H217.101V89.9791H235.189V35.9791H200.841V18.0209H253.213V251.979H144.812V270H271.301V0H0.298828Z" fill="#9F1E3A"/>
<path d="M162.9 126.021V108H108.699V162H162.9V143.979H126.787V126.021H162.9Z" fill="#9F1E3A"/>
<path d="M72.5859 72.0205V126.021H90.6107V89.9786H126.786V72.0205H72.5859Z" fill="#9F1E3A"/>
<path d="M36.4112 197.979V233.958H180.925V215.937H126.724V197.916H199.013V143.916H217.1V215.937H199.013V233.958H235.125V107.937H217.037V125.958H198.95V71.9583H144.749V89.9792H180.862V179.958H90.5486V143.979H72.4608V197.979H108.573V216H54.373V197.979H36.2852H36.4112Z" fill="#9F1E3A"/>
</svg>
