<svg width="128" height="129" viewBox="0 0 128 129" fill="none" xmlns="http://www.w3.org/2000/svg">
<path d="M26.1071 75.8705C27.7091 75.8705 29.0078 74.5719 29.0078 72.9699C29.0078 71.368 27.7091 70.0693 26.1071 70.0693C24.5052 70.0693 23.2065 71.368 23.2065 72.9699C23.2065 74.5719 24.5052 75.8705 26.1071 75.8705Z" fill="#9F1E3A" stroke="#9F1E3A" stroke-width="11.6024" stroke-miterlimit="10"/>
<path d="M37.7094 104.816C39.3114 104.816 40.61 103.517 40.61 101.915C40.61 100.313 39.3114 99.0146 37.7094 99.0146C36.1075 99.0146 34.8088 100.313 34.8088 101.915C34.8088 103.517 36.1075 104.816 37.7094 104.816Z" fill="#9F1E3A" stroke="#9F1E3A" stroke-width="11.6024" stroke-miterlimit="10"/>
<path d="M31.9082 46.8642C33.5101 46.8642 34.8088 45.5655 34.8088 43.9636C34.8088 42.3616 33.5101 41.063 31.9082 41.063C30.3062 41.063 29.0076 42.3616 29.0076 43.9636C29.0076 45.5655 30.3062 46.8642 31.9082 46.8642Z" fill="#9F1E3A" stroke="#9F1E3A" stroke-width="11.6024" stroke-miterlimit="10"/>
<path d="M55.0527 29.5209C56.6547 29.5209 57.9533 28.2223 57.9533 26.6203C57.9533 25.0184 56.6547 23.7197 55.0527 23.7197C53.4507 23.7197 52.1521 25.0184 52.1521 26.6203C52.1521 28.2223 53.4507 29.5209 55.0527 29.5209Z" fill="#9F1E3A" stroke="#9F1E3A" stroke-width="11.6024" stroke-miterlimit="10"/>
<path d="M84.0588 35.3222C85.6608 35.3222 86.9594 34.0236 86.9594 32.4216C86.9594 30.8196 85.6608 29.521 84.0588 29.521C82.4568 29.521 81.1582 30.8196 81.1582 32.4216C81.1582 34.0236 82.4568 35.3222 84.0588 35.3222Z" fill="#9F1E3A" stroke="#9F1E3A" stroke-width="11.6024" stroke-miterlimit="10"/>
<path d="M101.462 58.4667C103.064 58.4667 104.363 57.1681 104.363 55.5661C104.363 53.9642 103.064 52.6655 101.462 52.6655C99.8604 52.6655 98.5618 53.9642 98.5618 55.5661C98.5618 57.1681 99.8604 58.4667 101.462 58.4667Z" fill="#9F1E3A" stroke="#9F1E3A" stroke-width="11.6024" stroke-miterlimit="10"/>
<path d="M98.1349 87.4729L89.2638 87.4729C89.2619 87.4729 89.26 87.4729 89.2581 87.4729C84.0333 87.4665 78.8881 88.7529 74.2812 91.2177C69.6753 93.6819 65.7506 97.2474 62.8568 101.596C62.8551 101.599 62.8534 101.601 62.8517 101.604L55.9104 111.986L55.9044 111.995L55.8983 112.004C53.7924 115.179 50.9255 117.777 47.5588 119.562C44.192 121.346 40.4324 122.26 36.6222 122.22L36.5479 122.219L36.4737 122.22C32.8377 122.275 29.2445 121.43 26.014 119.761C22.7965 118.098 20.0382 115.669 17.9824 112.687C10.0046 100.65 5.76666 86.5201 5.8028 72.078L5.80282 72.0707V72.0635V64.2077V64.1871L5.80267 64.1664C5.69341 48.7967 11.6942 34.013 22.485 23.0677C33.2759 12.1223 47.9727 5.91194 63.3425 5.80267C78.7122 5.69341 93.4959 11.6942 104.441 22.485C115.382 33.2712 121.592 47.96 121.706 63.3226V63.3617V63.4093L121.707 63.457C121.758 66.5883 121.187 69.6985 120.025 72.6069C118.864 75.5154 117.136 78.1639 114.942 80.3986C112.748 82.6333 110.132 84.4095 107.245 85.6239C104.361 86.8375 101.264 87.466 98.1349 87.4729ZM98.1349 87.4729H98.1387V93.2741M98.1349 87.4729C98.1325 87.4729 98.13 87.4729 98.1276 87.4729L98.1387 93.2741M98.1387 93.2741C102.039 93.2667 105.9 92.4838 109.495 90.9712C113.09 89.4585 116.349 87.2462 119.082 84.4629C121.814 81.6795 123.967 78.3807 125.413 74.7582C126.86 71.1357 127.571 67.2618 127.507 63.3617L67.6824 104.816C70.0464 101.261 73.2536 98.3468 77.0179 96.3328C80.7822 94.3189 84.9864 93.2681 89.2556 93.2741H98.1387Z" stroke="#9F1E3A" stroke-width="11.6024" stroke-miterlimit="10"/>
</svg>
