<svg width="131" height="128" viewBox="0 0 131 128" fill="none" xmlns="http://www.w3.org/2000/svg">
<path d="M26.1076 75.8705C27.7096 75.8705 29.0082 74.5719 29.0082 72.9699C29.0082 71.368 27.7096 70.0693 26.1076 70.0693C24.5057 70.0693 23.207 71.368 23.207 72.9699C23.207 74.5719 24.5057 75.8705 26.1076 75.8705Z" fill="#9F1E3A" stroke="#9F1E3A" stroke-width="10.5" stroke-miterlimit="10"/>
<path d="M34.9006 103.801C36.5026 103.801 37.8012 102.503 37.8012 100.901C37.8012 99.2986 36.5026 98 34.9006 98C33.2986 98 32 99.2986 32 100.901C32 102.503 33.2986 103.801 34.9006 103.801Z" fill="#9F1E3A" stroke="#9F1E3A" stroke-width="10.5" stroke-miterlimit="10"/>
<path d="M31.9084 46.8642C33.5104 46.8642 34.809 45.5655 34.809 43.9636C34.809 42.3616 33.5104 41.063 31.9084 41.063C30.3065 41.063 29.0078 42.3616 29.0078 43.9636C29.0078 45.5655 30.3065 46.8642 31.9084 46.8642Z" fill="#9F1E3A" stroke="#9F1E3A" stroke-width="10.5" stroke-miterlimit="10"/>
<path d="M55.053 29.5209C56.6549 29.5209 57.9536 28.2223 57.9536 26.6203C57.9536 25.0184 56.6549 23.7197 55.053 23.7197C53.451 23.7197 52.1523 25.0184 52.1523 26.6203C52.1523 28.2223 53.451 29.5209 55.053 29.5209Z" fill="#9F1E3A" stroke="#9F1E3A" stroke-width="10.5" stroke-miterlimit="10"/>
<path d="M84.0569 35.3222C85.6588 35.3222 86.9575 34.0236 86.9575 32.4216C86.9575 30.8196 85.6588 29.521 84.0569 29.521C82.4549 29.521 81.1562 30.8196 81.1562 32.4216C81.1562 34.0236 82.4549 35.3222 84.0569 35.3222Z" fill="#9F1E3A" stroke="#9F1E3A" stroke-width="10.5" stroke-miterlimit="10"/>
<path d="M101.463 58.4667C103.065 58.4667 104.364 57.1681 104.364 55.5661C104.364 53.9642 103.065 52.6655 101.463 52.6655C99.8612 52.6655 98.5625 53.9642 98.5625 55.5661C98.5625 57.1681 99.8612 58.4667 101.463 58.4667Z" fill="#9F1E3A" stroke="#9F1E3A" stroke-width="10.5" stroke-miterlimit="10"/>
<path d="M125.746 63.3497V63.394L125.747 63.4384C125.8 66.6216 125.204 69.7868 123.987 72.7513C122.771 75.7161 120.957 78.4255 118.644 80.7183C116.331 83.0113 113.564 84.8415 110.501 86.0955C107.567 87.2972 101.976 88.2435 98.4902 88.25C94.998 88.2565 91.3281 87.4367 87.4526 86.5709C87.1283 86.4984 86.8025 86.4256 86.4753 86.353C84.4988 85.9142 82.3458 85.4571 80.3825 85.2767C78.5536 85.1087 75.9557 85.0709 73.6001 86.2974C72.1589 87.0478 71.0885 88.2085 70.3922 89.0619C69.6205 90.0075 68.8912 91.1046 68.2203 92.2141C66.8767 94.4359 65.5052 97.1478 64.2311 99.7825C63.5871 101.114 62.9508 102.463 62.3427 103.753L62.236 103.979C61.6628 105.195 61.1177 106.352 60.5992 107.427C59.4452 109.821 58.5977 111.437 58.0562 112.232C55.8416 115.482 52.8161 118.156 49.2443 119.998C45.6719 121.841 41.6736 122.789 37.6152 122.747L37.5498 122.746L37.4844 122.747C33.6067 122.804 29.7806 121.927 26.3484 120.201C22.9291 118.481 20.0134 115.976 17.8487 112.92C9.59151 100.796 5.2143 86.5808 5.25166 72.0634V72.0499V64.1956V64.1764L5.25152 64.1572C5.13854 48.6913 11.3417 33.7858 22.5443 22.7276C33.7516 11.6645 49.0456 5.36235 65.0695 5.25149C81.0934 5.14063 96.4791 11.2307 107.848 22.1388C119.208 33.0379 125.628 47.8498 125.746 63.3093V63.3497Z" stroke="#9F1E3A" stroke-width="10.5" stroke-miterlimit="10"/>
</svg>
