<svg width="32" height="42" viewBox="0 0 32 42" fill="none" xmlns="http://www.w3.org/2000/svg">
<path d="M0 1.5C0 0.67157 0.671573 0 1.5 0H10.5732C11.4016 0 12.0732 0.671573 12.0732 1.5V39.5488C12.0732 40.3772 11.4016 41.0488 10.5732 41.0488H1.5C0.671571 41.0488 0 40.3772 0 39.5488V1.5Z" fill="white"/>
<path d="M19.3185 1.50001C19.3185 0.671582 19.9901 1.18299e-05 20.8185 1.18299e-05H29.8917C30.7201 1.18299e-05 31.3917 0.671585 31.3917 1.50001V39.5488C31.3917 40.3772 30.7201 41.0488 29.8917 41.0488H20.8185C19.9901 41.0488 19.3185 40.3772 19.3185 39.5488V1.50001Z" fill="white"/>
</svg>
