<svg width="337" height="337" viewBox="0 0 337 337" fill="none" xmlns="http://www.w3.org/2000/svg">
<ellipse cx="168.5" cy="168.407" rx="168.5" ry="168.407" fill="#D9D9D9" fill-opacity="0.5"/>
<path d="M28.9961 262.855C28.9961 262.855 41.9961 242.719 56.9997 234.871C68.841 228.676 70.0259 229.091 82.9981 225.876C96.0145 222.649 110.368 221.101 123.5 218.38C158.68 211.089 180.44 210.534 215.5 218.38C227.856 221.145 235.246 222.68 247.498 225.876C260.06 229.152 267.503 228.843 279 234.871C293.191 242.311 307 264.854 307 264.854L280.998 294.837C280.998 294.837 232.996 336.315 169.496 336.315C69.9961 336.315 28.9961 262.855 28.9961 262.855Z" fill="#A5C1EA"/>
<path d="M28.9961 262.855C34 256.858 40.4601 243.326 56.2789 235.051C68.1202 228.857 69.3052 229.271 82.2774 226.056C95.2938 222.83 109.648 221.281 122.779 218.56C157.959 211.27 170.996 230.873 156.496 235.051C144.339 238.555 122.253 247.565 110.523 252.35L110.496 252.361C86.0484 262.334 90.4764 318.085 90.4955 318.324C90.4965 318.324 90.497 318.324 90.497 318.324C90.497 318.324 90.5009 318.327 90.5086 318.332C90.9274 318.582 101.37 324.763 118.857 329.944C132.339 333.681 150.681 336.874 173.995 336.874C173.996 336.874 173.996 336.874 173.996 336.874C194.957 336.065 218.705 331.25 243.844 319.181C248.267 316.957 252.348 314.687 256.046 312.48C260.4 282.195 247.938 262.735 254.496 267.353C276.495 282.844 279.495 295.837 279.495 295.837C279.495 295.837 270.818 303.663 256.046 312.48C256.029 312.595 256.013 312.711 255.995 312.827C251.913 315.139 247.861 317.253 243.844 319.181C225.483 328.417 201.234 336.874 173.996 336.874C152.016 337.722 133.1 334.165 118.857 329.944C100.232 324.782 90.8815 318.582 90.5086 318.332C90.4999 318.327 90.4955 318.324 90.4955 318.324C90.4955 318.324 90.4955 318.324 90.4955 318.324C90.3054 318.225 72.3709 308.943 57.5 296.337C41.2236 282.539 28.9942 262.857 28.9961 262.855Z" fill="#93ADDA"/>
<path d="M125.498 190.894C129.871 188.104 137.998 186.397 137.998 186.397H205.498C205.498 186.397 211.697 188.455 214.998 190.894C222.303 196.293 225.998 211.383 225.998 211.383C225.998 211.383 226.829 217.264 225.998 220.878C223.002 233.915 194.498 234.37 194.498 234.37H143.498C143.498 234.37 114.994 233.915 111.998 220.878C111.167 217.264 111.998 211.383 111.998 211.383C111.998 211.383 117.419 196.05 125.498 190.894Z" fill="#9FBAE2"/>
<path d="M124.869 191.394C129.242 188.604 137.369 186.897 137.369 186.897H144C144 186.897 136.183 196.851 132 206.886C129.5 212.883 127.5 227.874 142.869 234.87C142.869 234.87 114.365 234.415 111.369 221.378C110.539 217.764 111.369 211.883 111.369 211.883C111.369 211.883 116.79 196.55 124.869 191.394Z" fill="#87A2D2"/>
<path d="M104.506 96.9469C108.51 95.9026 114.506 100.445 114.506 100.445V133.927C114.506 133.927 108.94 135.479 106.006 133.927C101.233 131.401 103.753 126.04 102.004 120.933C100.477 116.471 98.0483 113.156 97.9971 108.44C97.9374 102.942 100.504 97.991 104.506 96.9469Z" fill="#ECC1AA"/>
<path d="M235.002 97.1022C230.998 96.0578 225.002 100.6 225.002 100.6V134.082C225.002 134.082 230.568 135.634 233.502 134.082C238.275 131.556 235.755 126.196 237.504 121.089C239.031 116.627 241.459 113.311 241.511 108.596C241.57 103.097 239.004 98.1463 235.002 97.1022Z" fill="#ECC1AA"/>
<path d="M108.504 63.465C108.502 33.4721 139.994 14.7213 170.002 14.9912C194.827 15.2144 223.124 28.2725 225.502 52.9707C228.004 78.9569 231.239 107.94 225.502 128.929C215.046 167.185 197 204.308 165.502 202.887C134.004 201.467 122.075 159.52 112.001 122.432C108.506 109.566 108.505 86.9757 108.504 63.5016L108.504 63.465Z" fill="#ECCCBC"/>
<path d="M109 63.4684C108.998 33.4755 140.49 14.7247 170.498 14.9946C183.893 15.115 170.498 46.974 154 63.4684C144.717 81.7059 144.342 93.8183 142.5 103.943C137.827 129.628 144.64 143.996 151.5 155.914C172.5 192.394 194 202.888 164.5 202.888C135 202.888 122.572 159.523 112.497 122.436C109.002 109.569 109.001 86.9791 109 63.505L109 63.4684Z" fill="#ECC2AB"/>
</svg>
