<svg width="115" height="125" viewBox="0 0 115 125" fill="none" xmlns="http://www.w3.org/2000/svg">
<path d="M47.9776 8.23817C47.9776 7.82461 48.313 7.48924 48.7266 7.48924V0C44.1768 0 40.4883 3.68838 40.4883 8.23817H47.9776ZM47.9776 9.3719V8.23817H40.4883V9.3719H47.9776ZM16.5772 26.8524C16.6758 26.6738 16.8062 26.5913 16.93 26.5582C17.0538 26.5251 17.208 26.5314 17.3826 26.6367L21.2532 20.2253C17.3097 17.8444 12.2475 19.1997 10.0209 23.2324L16.5772 26.8524ZM7.65701 43.0085L16.5772 26.8524L10.0209 23.2324L1.10058 39.3884L7.65701 43.0085ZM7.98909 44.249C7.8059 44.1383 7.65536 43.9472 7.58691 43.6919C7.51861 43.4366 7.55351 43.1958 7.65701 43.0085L1.10058 39.3884C-1.07132 43.3223 0.271509 48.338 4.11831 50.6604L7.98909 44.249ZM16.3088 63.1918C16.3088 62.5641 16.3218 61.9396 16.3479 61.3189L8.86504 61.0061C8.83478 61.7311 8.8195 62.4597 8.8195 63.1918H16.3088ZM16.32 64.1976C16.3125 63.8633 16.3088 63.5281 16.3088 63.1918H8.8195C8.8195 63.584 8.82384 63.9751 8.83253 64.3652L16.32 64.1976ZM7.65506 81.984C7.55156 81.7966 7.51666 81.5559 7.58496 81.3005C7.65342 81.0453 7.80395 80.8541 7.98714 80.7435L4.11637 74.332C0.269562 76.6544 -1.07325 81.6702 1.09863 85.604L7.65506 81.984ZM16.5793 98.1474L7.65506 81.984L1.09863 85.604L10.023 101.767L16.5793 98.1474ZM17.3847 98.3631C17.2101 98.4684 17.0559 98.4747 16.9321 98.4416C16.8083 98.4085 16.6779 98.326 16.5793 98.1474L10.023 101.767C12.2496 105.8 17.3118 107.155 21.2553 104.775L17.3847 98.3631ZM37.6246 100.515C36.97 100.14 36.3262 99.7483 35.6937 99.3388L31.6231 105.625C32.3707 106.109 33.132 106.573 33.9067 107.016L37.6246 100.515ZM48.7266 117.511C48.313 117.511 47.9776 117.175 47.9776 116.762H40.4883C40.4883 121.312 44.1768 125 48.7266 125V117.511ZM66.2731 117.511H48.7266V125H66.2731V117.511ZM67.022 116.762C67.022 117.175 66.6866 117.511 66.2731 117.511V125C70.8228 125 74.5113 121.312 74.5113 116.762H67.022ZM79.5154 99.3196C78.8105 99.7769 78.0915 100.213 77.3594 100.626L81.0412 107.148C81.9079 106.659 82.7582 106.143 83.5913 105.603L79.5154 99.3196ZM98.4226 98.1438C98.324 98.3223 98.1935 98.4047 98.0698 98.438C97.9461 98.4711 97.7918 98.4648 97.6173 98.3594L93.7465 104.771C97.6901 107.152 102.752 105.797 104.979 101.764L98.4226 98.1438ZM107.343 81.9877L98.4226 98.1438L104.979 101.764L113.899 85.6078L107.343 81.9877ZM107.011 80.7472C107.194 80.8579 107.345 81.049 107.413 81.3043C107.481 81.5596 107.446 81.8003 107.343 81.9877L113.899 85.6078C116.071 81.6739 114.728 76.6582 110.881 74.3358L107.011 80.7472ZM98.8707 63.1918C98.8707 63.618 98.8646 64.0425 98.8526 64.4655L106.339 64.6777C106.353 64.1842 106.36 63.6887 106.36 63.1918H98.8707ZM98.8202 61.0652C98.8538 61.7695 98.8707 62.4784 98.8707 63.1918H106.36C106.36 62.3599 106.34 61.5323 106.301 60.7099L98.8202 61.0652ZM107.345 43.0121C107.448 43.1994 107.483 43.4401 107.415 43.6955C107.347 43.9509 107.196 44.1419 107.013 44.2526L110.884 50.664C114.73 48.3416 116.073 43.3259 113.901 39.392L107.345 43.0121ZM98.4206 26.8486L107.345 43.0121L113.901 39.392L104.977 23.2288L98.4206 26.8486ZM97.6154 26.6331C97.7899 26.5276 97.9441 26.5214 98.0679 26.5546C98.1916 26.5877 98.3221 26.6701 98.4206 26.8486L104.977 23.2288C102.75 19.1959 97.6883 17.8407 93.7446 20.2215L97.6154 26.6331ZM67.022 8.23817V9.23845H74.5113V8.23817H67.022ZM66.2731 7.48924C66.6866 7.48924 67.022 7.82461 67.022 8.23817H74.5113C74.5113 3.68838 70.8228 0 66.2731 0V7.48924ZM48.7266 7.48924H66.2731V0H48.7266V7.48924ZM81.4683 19.4798C77.2482 17.0404 74.5113 13.1771 74.5113 9.23845H67.022C67.022 16.7212 72.0521 22.6873 77.7202 25.9637L81.4683 19.4798ZM93.7446 20.2215C90.354 22.2685 85.669 21.9081 81.4683 19.4798L77.7202 25.9637C83.4618 29.2828 91.1746 30.5215 97.6154 26.6331L93.7446 20.2215ZM106.301 60.7099C106.095 56.3692 107.825 52.5106 110.884 50.664L107.013 44.2526C100.975 47.8978 98.5223 54.792 98.8202 61.0652L106.301 60.7099ZM83.5913 105.603C87.0093 103.385 90.9418 103.078 93.7465 104.771L97.6173 98.3594C91.7114 94.7939 84.6334 95.9993 79.5154 99.3196L83.5913 105.603ZM110.881 74.3358C107.929 72.5533 106.22 68.8645 106.339 64.6777L98.8526 64.4655C98.6795 70.5701 101.149 77.2084 107.011 80.7472L110.881 74.3358ZM33.9067 107.016C37.9319 109.318 40.4883 112.987 40.4883 116.762H47.9776C47.9776 109.494 43.1849 103.695 37.6246 100.515L33.9067 107.016ZM21.2553 104.775C24.1204 103.045 28.1341 103.366 31.6231 105.625L35.6937 99.3388C30.5166 95.9864 23.3579 94.7568 17.3847 98.3631L21.2553 104.775ZM74.5113 116.762C74.5113 113.032 77.0456 109.404 81.0412 107.148L77.3594 100.626C71.8066 103.761 67.022 109.526 67.022 116.762H74.5113ZM8.83253 64.3652C8.92929 68.6831 7.16826 72.4896 4.11637 74.332L7.98714 80.7435C13.9452 77.1465 16.4589 70.4016 16.32 64.1976L8.83253 64.3652ZM4.11831 50.6604C7.27311 52.5651 9.05182 56.5382 8.86504 61.0061L16.3479 61.3189C16.6141 54.9493 14.1204 47.9505 7.98909 44.249L4.11831 50.6604ZM33.642 19.5199C29.4426 21.9566 24.6922 22.3014 21.2532 20.2253L17.3826 26.6367C23.8356 30.5326 31.606 29.3601 37.4008 25.9976L33.642 19.5199ZM40.4883 9.3719C40.4883 13.2858 37.8094 17.1016 33.642 19.5199L37.4008 25.9976C43.042 22.7241 47.9776 16.7981 47.9776 9.3719H40.4883Z" fill="#F9F7F4"/>
<path d="M76.0637 58.8734C78.7412 68.8656 72.8114 79.1363 62.8192 81.8137C52.827 84.4912 42.5562 78.5614 39.8787 68.5692C37.2013 58.577 43.1312 48.3062 53.1234 45.6287C63.1156 42.9513 73.3863 48.8812 76.0637 58.8734Z" stroke="#F9F7F4" stroke-width="7.13542"/>
<path fill-rule="evenodd" clip-rule="evenodd" d="M69.9995 6L80.4995 24.5H100.5L111.5 45.5L102 65.5L111.5 82.5L100.5 104H80.4995L69.9995 122H45.9995L36.9995 105L16.4995 104L3.99951 82.5L13.4995 64L3.99951 45.5L16.4995 24.5H36.9995L45.9995 6H69.9995ZM57.9995 83C68.4929 83 76.9995 74.4934 76.9995 64C76.9995 53.5066 68.4929 45 57.9995 45C47.5061 45 38.9995 53.5066 38.9995 64C38.9995 74.4934 47.5061 83 57.9995 83Z" fill="#F9F7F4"/>
</svg>
