<svg width="116" height="125" viewBox="0 0 116 125" fill="none" xmlns="http://www.w3.org/2000/svg">
<path d="M48.4781 8.23817C48.4781 7.82461 48.8135 7.48924 49.227 7.48924V0C44.6773 0 40.9888 3.68838 40.9888 8.23817H48.4781ZM48.4781 9.3719V8.23817H40.9888V9.3719H48.4781ZM17.0777 26.8524C17.1763 26.6738 17.3067 26.5913 17.4305 26.5582C17.5543 26.5251 17.7085 26.5314 17.8831 26.6367L21.7537 20.2253C17.8102 17.8444 12.748 19.1997 10.5214 23.2324L17.0777 26.8524ZM8.1575 43.0085L17.0777 26.8524L10.5214 23.2324L1.60106 39.3884L8.1575 43.0085ZM8.48957 44.249C8.30639 44.1383 8.15585 43.9472 8.0874 43.6919C8.0191 43.4366 8.054 43.1958 8.1575 43.0085L1.60106 39.3884C-0.570835 43.3223 0.771997 48.338 4.6188 50.6604L8.48957 44.249ZM16.8093 63.1918C16.8093 62.5641 16.8223 61.9396 16.8484 61.3189L9.36552 61.0061C9.33527 61.7311 9.31999 62.4597 9.31999 63.1918H16.8093ZM16.8205 64.1976C16.813 63.8633 16.8093 63.5281 16.8093 63.1918H9.31999C9.31999 63.584 9.32433 63.9751 9.33302 64.3652L16.8205 64.1976ZM8.15555 81.984C8.05205 81.7966 8.01715 81.5559 8.08545 81.3005C8.1539 81.0453 8.30444 80.8541 8.48763 80.7435L4.61686 74.332C0.77005 76.6544 -0.572767 81.6702 1.59912 85.604L8.15555 81.984ZM17.0798 98.1474L8.15555 81.984L1.59912 85.604L10.5235 101.767L17.0798 98.1474ZM17.8852 98.3631C17.7106 98.4684 17.5564 98.4747 17.4326 98.4416C17.3088 98.4085 17.1784 98.326 17.0798 98.1474L10.5235 101.767C12.7501 105.8 17.8123 107.155 21.7558 104.775L17.8852 98.3631ZM38.125 100.515C37.4705 100.14 36.8267 99.7483 36.1942 99.3388L32.1236 105.625C32.8712 106.109 33.6325 106.573 34.4072 107.016L38.125 100.515ZM49.227 117.511C48.8135 117.511 48.4781 117.175 48.4781 116.762H40.9888C40.9888 121.312 44.6773 125 49.227 125V117.511ZM66.7736 117.511H49.227V125H66.7736V117.511ZM67.5225 116.762C67.5225 117.175 67.1871 117.511 66.7736 117.511V125C71.3233 125 75.0118 121.312 75.0118 116.762H67.5225ZM80.0159 99.3196C79.311 99.7769 78.592 100.213 77.8598 100.626L81.5417 107.148C82.4084 106.659 83.2587 106.143 84.0918 105.603L80.0159 99.3196ZM98.9231 98.1438C98.8245 98.3223 98.694 98.4047 98.5703 98.438C98.4466 98.4711 98.2923 98.4648 98.1178 98.3594L94.247 104.771C98.1906 107.152 103.253 105.797 105.479 101.764L98.9231 98.1438ZM107.843 81.9877L98.9231 98.1438L105.479 101.764L114.4 85.6078L107.843 81.9877ZM107.511 80.7472C107.695 80.8579 107.845 81.049 107.913 81.3043C107.982 81.5596 107.947 81.8003 107.843 81.9877L114.4 85.6078C116.572 81.6739 115.229 76.6582 111.382 74.3358L107.511 80.7472ZM99.3712 63.1918C99.3712 63.618 99.3651 64.0425 99.3531 64.4655L106.839 64.6777C106.853 64.1842 106.861 63.6887 106.861 63.1918H99.3712ZM99.3207 61.0652C99.3543 61.7695 99.3712 62.4784 99.3712 63.1918H106.861C106.861 62.3599 106.841 61.5323 106.802 60.7099L99.3207 61.0652ZM107.846 43.0121C107.949 43.1994 107.984 43.4401 107.915 43.6955C107.847 43.9509 107.697 44.1419 107.513 44.2526L111.384 50.664C115.231 48.3416 116.574 43.3259 114.402 39.392L107.846 43.0121ZM98.9211 26.8486L107.846 43.0121L114.402 39.392L105.477 23.2288L98.9211 26.8486ZM98.1159 26.6331C98.2904 26.5276 98.4446 26.5214 98.5684 26.5546C98.6921 26.5877 98.8225 26.6701 98.9211 26.8486L105.477 23.2288C103.251 19.1959 98.1888 17.8407 94.2451 20.2215L98.1159 26.6331ZM67.5225 8.23817V9.23845H75.0118V8.23817H67.5225ZM66.7736 7.48924C67.1871 7.48924 67.5225 7.82461 67.5225 8.23817H75.0118C75.0118 3.68838 71.3233 0 66.7736 0V7.48924ZM49.227 7.48924H66.7736V0H49.227V7.48924ZM81.9688 19.4798C77.7487 17.0404 75.0118 13.1771 75.0118 9.23845H67.5225C67.5225 16.7212 72.5526 22.6873 78.2207 25.9637L81.9688 19.4798ZM94.2451 20.2215C90.8545 22.2685 86.1695 21.9081 81.9688 19.4798L78.2207 25.9637C83.9623 29.2828 91.6751 30.5215 98.1159 26.6331L94.2451 20.2215ZM106.802 60.7099C106.595 56.3692 108.325 52.5106 111.384 50.664L107.513 44.2526C101.475 47.8978 99.0228 54.792 99.3207 61.0652L106.802 60.7099ZM84.0918 105.603C87.5098 103.385 91.4423 103.078 94.247 104.771L98.1178 98.3594C92.2119 94.7939 85.1339 95.9993 80.0159 99.3196L84.0918 105.603ZM111.382 74.3358C108.43 72.5533 106.721 68.8645 106.839 64.6777L99.3531 64.4655C99.1799 70.5701 101.65 77.2084 107.511 80.7472L111.382 74.3358ZM34.4072 107.016C38.4324 109.318 40.9888 112.987 40.9888 116.762H48.4781C48.4781 109.494 43.6854 103.695 38.125 100.515L34.4072 107.016ZM21.7558 104.775C24.6209 103.045 28.6346 103.366 32.1236 105.625L36.1942 99.3388C31.0171 95.9865 23.8584 94.7568 17.8852 98.3631L21.7558 104.775ZM75.0118 116.762C75.0118 113.032 77.546 109.404 81.5417 107.148L77.8598 100.626C72.3071 103.761 67.5225 109.527 67.5225 116.762H75.0118ZM9.33302 64.3652C9.42978 68.6831 7.66875 72.4896 4.61686 74.332L8.48763 80.7435C14.4457 77.1465 16.9594 70.4016 16.8205 64.1976L9.33302 64.3652ZM4.6188 50.6604C7.7736 52.5651 9.55231 56.5382 9.36552 61.0061L16.8484 61.3189C17.1146 54.9493 14.6209 47.9505 8.48957 44.249L4.6188 50.6604ZM34.1425 19.5199C29.9431 21.9566 25.1927 22.3014 21.7537 20.2253L17.8831 26.6367C24.336 30.5326 32.1065 29.3601 37.9013 25.9976L34.1425 19.5199ZM40.9888 9.3719C40.9888 13.2858 38.3099 17.1016 34.1425 19.5199L37.9013 25.9976C43.5425 22.7241 48.4781 16.7981 48.4781 9.3719H40.9888Z" fill="#F9F7F4"/>
<path d="M76.5642 58.8734C79.2417 68.8656 73.3119 79.1363 63.3197 81.8137C53.3275 84.4912 43.0566 78.5614 40.3792 68.5692C37.7018 58.577 43.6317 48.3062 53.6239 45.6287C63.6161 42.9513 73.8868 48.8812 76.5642 58.8734Z" stroke="#F9F7F4" stroke-width="7.13542"/>
</svg>
