<svg width="141" height="138" viewBox="0 0 141 138" fill="none" xmlns="http://www.w3.org/2000/svg">
<path d="M127.328 0H13.6716C6.13292 0 0 6.10875 0 13.6171V98.1667C0 105.557 5.94245 111.592 13.3179 111.779L13.3506 124.412C13.3555 126.313 13.7454 128.152 14.5094 129.878C15.2365 131.521 16.269 132.984 17.5776 134.226C20.1414 136.66 23.4987 138 27.0301 138C29.5799 138 32.079 137.284 34.2579 135.931L73.1245 111.784H127.328C134.867 111.784 141 105.675 141 98.1667V13.6171C140.999 6.10875 134.867 0 127.328 0ZM130.926 98.1667C130.926 100.146 129.315 101.75 127.328 101.75H71.2703C70.5971 101.75 69.9375 101.938 69.3664 102.293L28.9261 127.417C28.319 127.794 27.6664 127.966 27.0301 127.966C25.1588 127.966 23.4298 126.482 23.4244 124.386L23.3755 105.324C23.3705 103.349 21.7609 101.75 19.7777 101.75H13.6716C11.6846 101.75 10.0738 100.146 10.0738 98.1664V13.6171C10.0738 11.638 11.6848 10.0337 13.6716 10.0337H127.328C129.315 10.0337 130.926 11.638 130.926 13.6171V98.1667H130.926Z" fill="#9F1E3A"/>
<path d="M73.4444 25L52.7778 42.2222H45.8889C42.0843 42.2222 39 45.3065 39 49.1111V62.8889C39 66.6936 42.0843 69.7778 45.8889 69.7778H52.7778L73.4444 87V25Z" fill="#9F1E3A"/>
<path d="M83.7778 45.6666C85.5 47.3889 87.2222 50.8333 87.2222 56C87.2222 61.1667 85.5 64.6111 83.7778 66.3333M94.1111 35.3333C99.2778 40.5 101 49.1111 101 56C101 62.8889 99.2778 71.5 94.1111 76.6667M73.4444 25L52.7778 42.2222H45.8889C42.0843 42.2222 39 45.3065 39 49.1111V62.8889C39 66.6936 42.0843 69.7778 45.8889 69.7778H52.7778L73.4444 87V25Z" stroke="#9F1E3A" stroke-width="7.32946" stroke-linecap="round" stroke-linejoin="round"/>
</svg>
