<svg width="127" height="131" viewBox="0 0 127 131" fill="none" xmlns="http://www.w3.org/2000/svg">
<path d="M2.35547 17.5548L8.28078 10.4376C9.27089 9.24831 11.1021 9.26405 12.0716 10.4702L17.7664 17.5548" stroke="white" stroke-width="4.5" stroke-linecap="round"/>
<path d="M116.225 112.589L123.342 118.514C124.531 119.505 124.515 121.336 123.309 122.305L116.225 128" stroke="white" stroke-width="4.5" stroke-linecap="round"/>
<path d="M10.5417 13.9458L10.5417 114.958C10.5417 117.663 12.7349 119.856 15.4402 119.856L119.942 119.844" stroke="white" stroke-width="4.5" stroke-linecap="round"/>
<path d="M41.6058 116.014L41.7324 37.3359C41.7368 34.6515 39.5795 32.4638 36.8953 32.4305L16.0035 32.1711C13.278 32.1372 11.0492 34.335 11.0448 37.0607L10.9183 115.623" stroke="white" stroke-width="4.5" stroke-linecap="round"/>
<path d="M73.2818 116.014L73.414 8.33804C73.4173 5.66171 71.2717 3.47828 68.5957 3.43473L46.8515 3.0809C44.118 3.03642 41.8773 5.23831 41.8739 7.97218L41.7419 115.488" stroke="white" stroke-width="4.5" stroke-linecap="round"/>
<path d="M104.958 116.014L105.086 51.8383C105.091 49.1485 102.927 46.9577 100.237 46.9308L78.4927 46.7137C75.7725 46.6865 73.5513 48.8812 73.5459 51.6016L73.4176 115.691" stroke="white" stroke-width="4.5" stroke-linecap="round"/>
</svg>
