<svg width="128" height="129" viewBox="0 0 127 131" fill="none" xmlns="http://www.w3.org/2000/svg">
<g opacity="0.9">
<path d="M3 15.5548L8.92532 8.43758C9.91543 7.24831 11.7466 7.26405 12.7162 8.47018L18.411 15.5548" stroke="#F9F7F4" stroke-width="4.5" stroke-linecap="round"/>
<path d="M116.87 110.589L123.987 116.514C125.176 117.505 125.161 119.336 123.955 120.305L116.87 126" stroke="#F9F7F4" stroke-width="4.5" stroke-linecap="round"/>
<path d="M11.1855 11.9458L11.1855 112.958C11.1855 115.663 13.3787 117.856 16.084 117.856L120.586 117.844" stroke="#F9F7F4" stroke-width="4.5" stroke-linecap="round"/>
<path d="M42.2511 114.014L42.3777 35.3359C42.382 32.6515 40.2248 30.4638 37.5406 30.4305L16.6488 30.1711C13.9232 30.1372 11.6944 32.335 11.69 35.0607L11.5636 113.623" stroke="#F9F7F4" stroke-width="4.5" stroke-linecap="round"/>
<path d="M73.8604 114L73.9939 8.33123C73.9973 5.65397 71.8504 3.47007 69.1734 3.42772L47.1087 3.07862C44.3761 3.03538 42.1367 5.23682 42.1333 7.96976L42 113.484" stroke="#F9F7F4" stroke-width="4.5" stroke-linecap="round"/>
<path d="M105.602 114.014L105.73 49.8383C105.735 47.1485 103.571 44.9577 100.881 44.9308L79.1368 44.7137C76.4166 44.6865 74.1954 46.8812 74.1899 49.6016L74.0617 113.691" stroke="#F9F7F4" stroke-width="4.5" stroke-linecap="round"/>
</g>
</svg>
