<svg width="127" height="128" viewBox="0 0 127 128" fill="none" xmlns="http://www.w3.org/2000/svg">
<path d="M2.85608 14.5548L8.78139 7.43758C9.7715 6.24831 11.6027 6.26405 12.5722 7.47018L18.267 14.5548" stroke="#F9F7F4" stroke-width="4.5" stroke-linecap="round"/>
<path d="M116.726 109.589L123.843 115.514C125.032 116.505 125.017 118.336 123.811 119.305L116.726 125" stroke="#F9F7F4" stroke-width="4.5" stroke-linecap="round"/>
<path d="M11.0416 10.9458L11.0416 111.958C11.0416 114.663 13.2348 116.856 15.9401 116.856L120.442 116.844" stroke="#F9F7F4" stroke-width="4.5" stroke-linecap="round"/>
<path d="M40.8561 34.1874V108.102C40.8561 110.807 38.6632 113 35.9581 113H19.754C17.049 113 14.8561 110.807 14.8561 108.102V33.9655C14.8561 31.2342 17.0901 29.0306 19.8211 29.068L36.0252 29.2899C38.7039 29.3266 40.8561 31.5085 40.8561 34.1874Z" fill="#F9F7F4"/>
<path d="M72.8561 5.32887V108.102C72.8561 110.807 70.6632 113 67.9581 113H46.754C44.049 113 41.8561 110.807 41.8561 108.102V4.97935C41.8561 2.24271 44.0985 0.0369644 46.8347 0.0820618L68.0389 0.431595C70.7121 0.475655 72.8561 2.65528 72.8561 5.32887Z" fill="#F9F7F4"/>
<path d="M105.856 49.1598V108.102C105.856 110.807 103.663 113 100.958 113H78.7639C76.055 113 73.8605 110.801 73.866 108.092L73.9857 48.9357C73.9912 46.2159 76.2115 44.0215 78.9311 44.0479L101.006 44.2621C103.692 44.2882 105.856 46.4733 105.856 49.1598Z" fill="#F9F7F4"/>
</svg>
