<svg width="142" height="138" viewBox="0 0 142 138" fill="none" xmlns="http://www.w3.org/2000/svg">
<path d="M127.828 0H14.1716C6.63292 0 0.5 6.10875 0.5 13.6171V98.1667C0.5 105.557 6.44245 111.592 13.8179 111.779L13.8506 124.412C13.8555 126.313 14.2454 128.152 15.0094 129.878C15.7365 131.521 16.769 132.984 18.0776 134.226C20.6414 136.66 23.9987 138 27.5301 138C30.0799 138 32.579 137.284 34.7579 135.931L73.6245 111.784H127.828C135.367 111.784 141.5 105.675 141.5 98.1667V13.6171C141.499 6.10875 135.367 0 127.828 0ZM131.426 98.1667C131.426 100.146 129.815 101.75 127.828 101.75H71.7703C71.0971 101.75 70.4375 101.938 69.8664 102.293L29.4261 127.417C28.819 127.794 28.1664 127.966 27.5301 127.966C25.6588 127.966 23.9298 126.482 23.9244 124.386L23.8755 105.324C23.8705 103.349 22.2609 101.75 20.2777 101.75H14.1716C12.1846 101.75 10.5738 100.146 10.5738 98.1664V13.6171C10.5738 11.638 12.1848 10.0337 14.1716 10.0337H127.828C129.815 10.0337 131.426 11.638 131.426 13.6171V98.1667H131.426Z" fill="#9F1E3A"/>
<path d="M73.9444 25L53.2778 42.2222H46.3889C42.5843 42.2222 39.5 45.3065 39.5 49.1111V62.8889C39.5 66.6936 42.5843 69.7778 46.3889 69.7778H53.2778L73.9444 87V25Z" fill="#9F1E3A"/>
<path d="M84.2778 45.6666C86 47.3889 87.7222 50.8333 87.7222 56C87.7222 61.1667 86 64.6111 84.2778 66.3333M94.6111 35.3333C99.7778 40.5 101.5 49.1111 101.5 56C101.5 62.8889 99.7778 71.5 94.6111 76.6667M73.9444 25L53.2778 42.2222H46.3889C42.5843 42.2222 39.5 45.3065 39.5 49.1111V62.8889C39.5 66.6936 42.5843 69.7778 46.3889 69.7778H53.2778L73.9444 87V25Z" stroke="#9F1E3A" stroke-width="7.32946" stroke-linecap="round" stroke-linejoin="round"/>
</svg>
