<svg width="68" height="66" viewBox="0 0 68 66" fill="none" xmlns="http://www.w3.org/2000/svg">
<rect width="67.3203" height="65.9951" rx="2.22511" fill="#F9F4F4"/>
<path d="M29.979 23.3217C29.6314 22.1912 28.5903 21.4204 27.4125 21.4204H24.4963C23.3154 21.4204 22.2717 22.1962 21.9264 23.3325L16.4335 41.399C16.1939 42.184 16.3394 43.0358 16.8263 43.6953C17.3118 44.3547 18.0797 44.744 18.8964 44.744C20.0539 44.744 21.0689 43.9682 21.3786 42.8479L22.5079 38.7572H29.1526L30.3687 42.8224C30.7097 43.9631 31.7543 44.744 32.9416 44.744C33.7962 44.744 34.5992 44.336 35.105 43.6453C35.612 42.9541 35.7611 42.0624 35.5084 41.243L29.979 23.3217ZM23.2656 34.8128L24.6411 29.8636C25.0192 28.514 25.365 26.7501 25.7103 25.3653H25.776C26.1214 26.7501 26.537 28.4798 26.9482 29.8636L28.3948 34.8128H23.2656Z" fill="#9F1E3A"/>
<path d="M50.6996 41.0596V36.242C50.6996 32.9843 49.2325 30.2636 44.6353 30.2636C42.9287 30.2636 41.5094 30.5781 40.4747 30.9486C39.7871 31.195 39.4088 31.9333 39.6086 32.6388L39.6223 32.6852C39.7272 33.0564 39.9803 33.368 40.3212 33.5473C40.6611 33.7267 41.0586 33.7584 41.4232 33.6347C42.1766 33.3792 43.0406 33.2102 43.875 33.2102C45.9903 33.2102 46.3856 34.2591 46.3856 34.9957V35.1948C41.507 35.1659 38.2932 36.894 38.2932 40.4932C38.2932 42.7043 39.9565 44.7434 42.7492 44.7434C44.3834 44.7434 45.7916 44.1475 46.6951 43.0426H46.7783L46.8891 43.6487C46.9729 44.1021 47.3657 44.4319 47.8253 44.4319H49.8229C50.0884 44.4319 50.3414 44.3211 50.521 44.1259C50.7017 43.9307 50.7931 43.6685 50.7728 43.403C50.7209 42.7207 50.6996 41.9018 50.6996 41.0596ZM46.5245 39.3877C46.5245 39.6424 46.4974 39.898 46.4399 40.1243C46.1584 41.0029 45.2845 41.7112 44.2128 41.7112C43.2551 41.7112 42.5212 41.1731 42.5212 40.0682C42.5212 38.3963 44.2703 37.8582 46.5245 37.8859V39.3877Z" fill="#9F1E3A"/>
</svg>
