<svg width="130" height="88" viewBox="0 0 130 88" fill="none" xmlns="http://www.w3.org/2000/svg">
<g id="textAa">
<path d="M51.5345 7.17343C50.2229 2.90824 46.2948 0 41.8511 0H30.8482C26.3927 0 22.4546 2.9272 21.1517 7.21424L0.426878 75.3793C-0.477014 78.341 0.0718715 81.555 1.909 84.0434C3.74089 86.5311 6.63806 88 9.71941 88C14.0869 88 17.9165 85.0728 19.085 80.8461L23.3459 65.4117H48.4162L53.0048 80.7497C54.2912 85.0538 58.2325 88 62.7121 88C65.9365 88 68.9663 86.4606 70.8749 83.8546C72.7878 81.2466 73.3503 77.8825 72.3969 74.7907L51.5345 7.17343ZM26.2046 50.5297L31.3942 31.8561C32.8211 26.764 34.1258 20.1091 35.4285 14.884H35.6763C36.9795 20.1091 38.5475 26.6352 40.0991 31.8561L45.557 50.5297H26.2046Z" fill="#9F1E3A"/>
<path d="M129.713 74.0987V55.922C129.713 43.6307 124.178 33.3655 106.833 33.3655C100.394 33.3655 95.0384 34.552 91.1347 35.9498C88.5404 36.8796 87.113 39.6652 87.8668 42.3269L87.9184 42.502C88.3143 43.9027 89.2692 45.0782 90.5554 45.7547C91.8379 46.4317 93.3378 46.5513 94.7133 46.0847C97.556 45.1206 100.816 44.4831 103.964 44.4831C111.945 44.4831 113.436 48.4404 113.436 51.2196V51.9709C95.0295 51.8616 82.9038 58.382 82.9038 71.9618C82.9038 80.3041 89.1794 87.9979 99.7164 87.9979C105.882 87.9979 111.195 85.7496 114.604 81.5805H114.918L115.336 83.8675C115.652 85.5781 117.135 86.8224 118.868 86.8224H126.405C127.407 86.8224 128.362 86.4045 129.039 85.6679C129.721 84.9314 130.066 83.942 129.989 82.9403C129.794 80.3663 129.713 77.2763 129.713 74.0987ZM113.96 67.7908C113.96 68.7517 113.859 69.7161 113.641 70.5701C112.579 73.8849 109.282 76.5572 105.239 76.5572C101.625 76.5572 98.8563 74.5269 98.8563 70.3581C98.8563 64.05 105.455 62.0199 113.96 62.1245V67.7908Z" fill="#9F1E3A"/>
</g>
</svg>
