<svg width="132" height="130" viewBox="0 0 132 130" fill="none" xmlns="http://www.w3.org/2000/svg">
<rect width="132" height="129.402" rx="4.36294" fill="#F9F4F4"/>
<path d="M58.7817 45.7284C58.1001 43.5119 56.0587 42.0005 53.7494 42.0005H48.0314C45.7159 42.0005 43.6693 43.5217 42.9922 45.7496L32.2218 81.174C31.7521 82.7131 32.0374 84.3834 32.9921 85.6766C33.9441 86.9694 35.4497 87.7328 37.051 87.7328C39.3208 87.7328 41.311 86.2116 41.9182 84.015L44.1325 75.9939H57.1612L59.5458 83.9649C60.2143 86.2017 62.2625 87.7328 64.5905 87.7328C66.2662 87.7328 67.8407 86.9328 68.8326 85.5785C69.8267 84.2231 70.119 82.4749 69.6236 80.8681L58.7817 45.7284ZM45.6181 68.26L48.3151 58.5556C49.0566 55.9093 49.7347 52.4509 50.4116 49.7355H50.5404C51.2177 52.4509 52.0326 55.8424 52.8389 58.5556L55.6753 68.26H45.6181Z" fill="#9F1E3A"/>
<path d="M99.4101 80.5085V71.0623C99.4101 64.6747 96.5334 59.34 87.5194 59.34C84.1731 59.34 81.39 59.9567 79.3613 60.6831C78.0131 61.1663 77.2713 62.6139 77.663 63.9972L77.6899 64.0882C77.8956 64.8161 78.3919 65.427 79.0603 65.7785C79.7268 66.1304 80.5063 66.1925 81.2211 65.95C82.6984 65.449 84.3924 65.1177 86.0286 65.1177C90.1762 65.1177 90.9512 67.1743 90.9512 68.6186V69.009C81.3854 68.9522 75.0838 72.3407 75.0838 79.3979C75.0838 83.7333 78.3452 87.7317 83.8211 87.7317C87.0254 87.7317 89.7865 86.5633 91.5581 84.3967H91.7212L91.9385 85.5852C92.1028 86.4742 92.8731 87.1208 93.7742 87.1208H97.691C98.2116 87.1208 98.7076 86.9036 99.0599 86.5208C99.4141 86.1381 99.5935 85.6239 99.5536 85.1033C99.4519 83.7656 99.4101 82.1598 99.4101 80.5085ZM91.2235 77.2304C91.2235 77.7297 91.1706 78.2309 91.0577 78.6747C90.5059 80.3974 88.7922 81.7861 86.6909 81.7861C84.813 81.7861 83.3741 80.731 83.3741 78.5645C83.3741 75.2863 86.8036 74.2313 91.2235 74.2857V77.2304Z" fill="#9F1E3A"/>
</svg>
