<svg width="18" height="19" viewBox="0 0 18 19" fill="none" xmlns="http://www.w3.org/2000/svg">
<path fill-rule="evenodd" clip-rule="evenodd" d="M15.5335 5.16309H2.5238V7.33137C3.32214 7.33137 3.96933 7.97855 3.96933 8.77689V11.6679C3.96933 13.7122 3.96933 14.7343 4.6044 15.3694C5.23948 16.0045 6.26161 16.0045 8.30589 16.0045H9.75141C11.7957 16.0045 12.8178 16.0045 13.4529 15.3694C14.088 14.7343 14.088 13.7122 14.088 11.6679V8.77689C14.088 7.97855 14.7352 7.33137 15.5335 7.33137V5.16309ZM7.94452 8.77691C7.94452 8.37774 7.62093 8.05415 7.22176 8.05415C6.82259 8.05415 6.499 8.37774 6.499 8.77691V12.3907C6.499 12.7899 6.82259 13.1135 7.22176 13.1135C7.62093 13.1135 7.94452 12.7899 7.94452 12.3907V8.77691ZM11.5583 8.77691C11.5583 8.37774 11.2347 8.05415 10.8356 8.05415C10.4364 8.05415 10.1128 8.37774 10.1128 8.77691V12.3907C10.1128 12.7899 10.4364 13.1135 10.8356 13.1135C11.2347 13.1135 11.5583 12.7899 11.5583 12.3907V8.77691Z" fill="#901a36"/>
<path d="M7.63233 3.26297C7.71469 3.18612 7.89617 3.11822 8.14862 3.0698C8.40107 3.02137 8.71039 2.99512 9.0286 2.99512C9.34681 2.99512 9.65612 3.02137 9.90858 3.0698C10.161 3.11822 10.3425 3.18612 10.4249 3.26297" stroke="#901a36" stroke-width="1.44552" stroke-linecap="round"/>
</svg>
