<svg width="113" height="119" viewBox="0 0 113 119" fill="none" xmlns="http://www.w3.org/2000/svg">
<rect x="25.0039" y="17" width="64" height="15" fill="#C33554"/>
<path d="M41.5039 21V6C41.5039 6 42.4996 2.49988 47.0039 2.5C51.0039 2.50011 52.0039 6 52.0039 6L51.0039 21C51.0039 21 50.0039 25 46.0039 25C41.4978 25 41.5039 21 41.5039 21Z" fill="#FFCDBE" stroke="#FAA68E"/>
<path d="M52.0039 22.3778V5.04445C52.0039 5.04445 52.9521 0.999856 57.242 1C61.0515 1.00013 62.0039 5.04445 62.0039 5.04445L61.0515 22.3778C61.0515 22.3778 60.0991 27 56.2896 27C51.9981 27 52.0039 22.3778 52.0039 22.3778Z" fill="#FFCDBE" stroke="#FAA68E"/>
<path d="M62.0039 21.0889V6.42222C62.0039 6.42222 62.9521 2.99988 67.242 3C71.0515 3.00011 72.0039 6.42222 72.0039 6.42222L71.0515 21.0889C71.0515 21.0889 70.0991 25 66.2896 25C61.9981 25 62.0039 21.0889 62.0039 21.0889Z" fill="#FFCDBE" stroke="#FAA68E"/>
<path d="M72.0039 22.6222V9.95556C72.0039 9.95556 72.9521 6.9999 77.242 7C81.0515 7.00009 82.0039 9.95556 82.0039 9.95556L81.0515 22.6222C81.0515 22.6222 80.0991 26 76.2896 26C71.9981 26 72.0039 22.6222 72.0039 22.6222Z" fill="#FFCDBE" stroke="#FAA68E"/>
<path d="M54.0023 25.5C54.0023 25.5 56.7388 21.1156 57.74 18C59.7712 11.6795 57.0019 1 57.74 1C61.5495 1 62.5019 5.04445 62.5019 5.04445L61.5495 22.3778C61.5495 22.3778 60.5971 27 56.7876 27C52.4961 27 54.0023 25.5 54.0023 25.5Z" fill="#FAA68E" stroke="#FAA68E"/>
<path d="M65.4972 24.5C65.4972 24.5 67.7087 22.1363 68.2805 19.5C69.4404 14.1518 67.859 3.5 68.2805 3.5C70.4559 3.5 71.4997 6.5 71.4997 6.5L70.4559 21.0889C70.4559 21.0889 69.674 24.5 67.4986 24.5H65.4972Z" fill="#FAA68E" stroke="#FAA68E"/>
<path d="M45.0323 24C45.0323 24 47.2439 21.6363 47.8156 19C48.9755 13.6518 47.3941 3 47.8156 3C49.991 3 51.0349 6 51.0349 6L49.991 20.5889C49.991 20.5889 49.2091 24 47.0337 24H45.0323Z" fill="#FAA68E" stroke="#FAA68E"/>
<path d="M75.5 25C75.5 25 77.9689 22.6341 78.348 20.5C79.1172 16.1705 78.587 8 78.8665 8C80.3091 8 81.5013 10.5 81.5013 10.5L80.3091 22.2386C80.3091 22.2386 79.7906 25 78.348 25H75.5Z" fill="#FAA68E" stroke="#FAA68E"/>
<rect width="19" height="47" rx="2" transform="matrix(-1 0 0 1 105.004 0)" fill="#9F1E3A"/>
<path d="M113.005 10.5C113.014 9 104.505 1 104.505 1V46C104.505 46 112.988 37.5 113.005 36.5C113.014 35.9405 112.998 11.5 113.005 10.5Z" fill="#77172D"/>
<rect x="8.00391" width="19" height="47" rx="2" fill="#9F1E3A"/>
<path d="M0.00315731 10.5C-0.00653333 9 8.50316 1 8.50316 1V46C8.50316 46 0.0200559 37.5 0.00315731 36.5C-0.00629675 35.9405 0.00961765 11.5 0.00315731 10.5Z" fill="#77162D"/>
<path d="M40.1967 53.1917C39.1935 69.6927 40.1967 118.192 40.1967 118.192H74.6967V53.1917C74.6967 50.6927 79.6501 46.6132 81.1967 41.6917C83.4212 34.613 82.5039 32.5001 82.5039 32.5001L66.0039 32.5002L57.5 32.5001L56 34.0001L46 33.5001C46 33.5001 51.8079 39.1593 51.1967 41.6917C50.2302 45.6958 44.82 50.3673 42.1967 47.1917C39.5586 43.9983 49.8394 43.8314 49.6967 39.6917C49.5586 35.6876 42.1967 32.6917 42.1967 32.6917H54.1914C54.1914 32.6917 58.1967 32.7161 58.1967 27.6928C58.1967 21 44.5 21.5 44.5 21.5C44.5 21.5 34.6841 20.1939 32.1912 24.6928C31.179 26.5196 30.3715 35.1917 31.6967 39.6917C33.4566 45.668 40.3182 51.1927 40.1967 53.1917Z" fill="#FFCDBE" stroke="#FAA68E"/>
<path d="M40.4852 118.998C40.1587 119.002 39.9805 118.998 39.9805 118.998H40.4852C43.9522 118.958 64.1364 118.069 65.0757 102.805V60.2949H39.9805V56.2463H65.0757C65.0757 56.2463 64.61 51.5839 65.0757 48.6553C66.105 42.1824 71.1397 40.1664 73.3068 33.9793C74 32 73.3068 32 73.3068 32H83C83 32 84.2662 34.4049 81.9871 41.5695C80.4025 46.5507 75.3275 50.6798 75.3275 53.2091V118.998H40.4852Z" fill="#FAA68E"/>
<path d="M31.2716 26.8947C30.2344 28.7438 32.1776 21.9978 36.9357 21.3278C40.4576 20.8318 52.3318 20.8228 56.4017 21.8338C60.4715 22.8448 60.6787 25.9202 60.4715 28.4117C60.244 31.1481 59.2407 33.0267 56.8856 34.4845C54.5061 35.9573 49.7137 34.9906 49.7137 34.9906C49.7137 34.9906 51.8768 39.0064 51.2506 41.5695C50.2603 45.6222 44.7174 50.3505 42.0296 47.1363C39.3268 43.9041 49.86 43.7352 49.7137 39.5452C49.5723 35.4925 41.0617 35.4975 41.5457 32.4602C41.7961 30.8887 52.8157 31.4489 52.8157 31.4489C52.8157 31.4489 58.9293 32.4602 58.4224 27.4007C58.1182 24.3643 54.3188 23.8583 54.3188 23.8583C54.3188 23.8583 33.8257 22.3412 31.2716 26.8947Z" fill="#FAA68E"/>
<rect x="37.0039" y="59" width="40" height="28" rx="2" fill="#9F1E3A"/>
<rect x="37.0039" y="67" width="40" height="13" fill="#F9F7F4"/>
</svg>
