<svg width="493" height="493" viewBox="0 0 493 493" fill="none" xmlns="http://www.w3.org/2000/svg">
<path fill-rule="evenodd" clip-rule="evenodd" d="M395.516 286H430.489V184.074C430.489 184.074 494.651 220.585 492.968 141.479C491.382 66.9362 430.489 103.447 430.489 103.447V0H144V29.2769C126.755 37.4468 110.254 49.0718 93.6588 64.5752C64.7831 91.5504 47.4482 112.064 41.1587 151.075C39.3538 162.271 39.4109 168.738 39.6587 180.075C39.8547 189.037 42.0479 196.196 44.1688 203.118C46.8632 211.913 49.441 220.327 47.6587 231.575C46.9693 235.926 46.3631 238.338 45.1587 242.575C38.3578 266.504 19.571 285.522 9.14007 296.082C6.4515 298.803 4.31807 300.963 3.0881 302.5C-2.9138 310 0.869833 315.137 5.65874 320.075C9.44914 323.983 15.5159 326.099 20.7249 327.916C26.3144 329.865 30.9163 331.47 30.6587 334.575C30.423 337.417 28.0672 339.603 25.6999 341.8C23.0698 344.24 20.4256 346.694 20.6587 350.075C20.97 354.59 29.2377 357.887 34.9941 360.183C37.4292 361.154 39.4148 361.946 40.1587 362.575C41.202 363.457 38.8652 365.007 35.7811 367.053C31.4674 369.915 25.692 373.746 25.6587 378.075C25.6262 382.303 30.0068 384.472 34.247 386.572C37.453 388.159 40.5788 389.707 41.6563 392.075C42.8649 394.731 41.2745 399.02 39.4755 403.872C37.5495 409.066 35.3845 414.905 36.1587 420.075C37.6563 430.075 55.6017 441.075 70.09 441.075C74.2658 441.075 79.4046 440.251 85.2389 439.315C99.647 437.003 118.297 434.011 137.159 441.075C157.236 448.594 162.102 474.281 163.281 486.291C163.617 489.707 166.533 492.43 169.962 492.257L343.74 483.475C347.714 483.275 350.419 479.329 349.241 475.529C344.895 461.513 336.081 430.862 334.659 408.575C331.823 381.885 350.412 354.525 370.816 324.493C379.196 312.159 387.882 299.374 395.516 286ZM395.516 286C408.643 263.003 418.659 238.263 418.659 211.075C408.582 110.292 348.188 28.4298 247.659 16.0752C207.618 11.1543 174.634 14.7642 144 29.2769V103.447C144 103.447 215.622 66.9362 215.622 150.606C215.622 229.773 144 194.723 144 194.723V286H240.048C240.048 286 198.853 214.5 287.244 214.5C375.636 214.5 340.624 286 340.624 286H395.516Z" fill="#9F1E3A"/>
</svg>
